<?xml version="1.0" standalone="no"?>
<!DOCTYPE svg PUBLIC "-//W3C//DTD SVG 20010904//EN"
 "http://www.w3.org/TR/2001/REC-SVG-20010904/DTD/svg10.dtd">
<svg version="1.0" xmlns="http://www.w3.org/2000/svg"
 width="800.000000pt" height="800.000000pt" viewBox="0 0 800.000000 800.000000"
 preserveAspectRatio="xMidYMid meet">

<g transform="translate(0.000000,800.000000) scale(0.100000,-0.100000)"
fill="#038C5A" stroke="none">
<path d="M3742 7989 c-718 -43 -1452 -302 -2047 -723 -38 -27 -72 -52 -75 -55
-3 -4 -16 -14 -30 -22 -24 -16 -190 -153 -274 -227 -167 -148 -443 -457 -572
-642 -201 -288 -346 -557 -467 -865 -271 -690 -343 -1458 -206 -2190 181 -969
700 -1813 1498 -2438 371 -290 873 -542 1336 -672 984 -275 2012 -174 2910
285 272 139 546 318 729 477 28 25 80 70 116 101 160 138 387 385 541 589 825
1095 1025 2563 522 3848 -115 295 -272 585 -467 865 -140 201 -416 508 -596
662 -36 31 -88 76 -116 101 -124 107 -366 276 -539 376 -688 397 -1463 578
-2263 530z m573 -149 c779 -66 1486 -347 2095 -834 165 -132 471 -438 602
-603 424 -535 706 -1178 797 -1818 58 -409 53 -872 -15 -1270 -101 -596 -385
-1219 -783 -1719 -132 -165 -438 -471 -601 -602 -508 -406 -1107 -679 -1735
-789 -175 -31 -351 -47 -581 -52 -719 -17 -1331 132 -1959 476 -321 176 -573
368 -856 650 -332 333 -546 632 -749 1046 -194 398 -307 791 -362 1260 -17
146 -17 684 0 830 88 751 357 1404 820 1988 131 165 437 471 602 603 556 444
1200 720 1900 814 224 29 600 39 825 20z"/>
<path d="M910 6125 c0 -3 134 -142 298 -308 465 -472 530 -540 674 -711 210
-249 223 -299 136 -516 -63 -155 -49 -298 54 -562 53 -137 78 -178 46 -75 -10
34 -33 130 -50 212 -40 197 -36 261 20 401 99 245 81 323 -126 567 -180 211
-630 646 -881 852 -20 16 -66 56 -103 88 -38 33 -68 56 -68 52z"/>
<path d="M6920 5993 c-363 -312 -755 -691 -915 -883 -195 -234 -212 -320 -113
-558 57 -135 60 -200 19 -400 -18 -85 -41 -181 -51 -215 -11 -34 -18 -63 -16
-64 6 -6 75 162 111 273 29 86 37 130 41 209 6 107 1 133 -52 275 -20 54 -28
95 -28 145 -1 63 3 76 33 125 94 154 227 300 824 908 164 167 297 305 295 307
-2 1 -68 -54 -148 -122z"/>
<path d="M884 6085 c-4 -15 -1 -53 6 -84 7 -31 14 -94 15 -141 1 -61 8 -100
24 -139 21 -51 21 -56 6 -93 -29 -73 -12 -170 49 -283 27 -49 31 -65 24 -85
-25 -66 21 -198 97 -279 27 -29 42 -52 36 -56 -6 -3 -11 -27 -11 -52 0 -78 44
-129 212 -242 42 -29 80 -61 84 -73 15 -49 131 -150 319 -278 44 -30 88 -65
98 -77 31 -38 37 -26 11 22 -29 51 -67 155 -60 162 3 3 16 -7 30 -22 34 -37
33 -26 -4 31 -35 55 -60 128 -57 166 2 26 17 41 17 18 0 -15 96 -110 110 -110
6 0 -8 24 -33 53 -51 60 -78 110 -101 186 -19 64 -18 61 -7 61 5 0 14 -14 21
-30 13 -31 94 -110 113 -110 5 0 -7 18 -26 40 -20 21 -48 57 -61 79 -29 45
-66 149 -66 183 0 21 2 21 26 -10 14 -17 45 -43 68 -57 48 -28 74 -34 36 -8
-41 27 -91 76 -106 105 -8 15 -19 51 -25 80 -11 54 -52 140 -75 159 -7 6 0
-13 16 -43 28 -52 48 -118 35 -118 -3 0 -25 18 -48 41 -23 23 -76 67 -117 99
-89 68 -180 163 -203 213 -10 19 -24 66 -34 104 -22 94 -26 103 -30 75 -4 -19
-22 -1 -113 108 -133 159 -187 241 -230 345 -18 44 -34 82 -36 84 -2 2 -6 -9
-10 -24z m113 -275 c22 -30 87 -100 143 -155 122 -120 136 -138 144 -191 7
-40 6 -41 -23 -47 -73 -15 -95 -142 -38 -224 30 -44 33 -53 14 -53 -8 0 -22
-9 -32 -20 -15 -17 -16 -25 -5 -70 9 -39 21 -58 53 -85 26 -22 35 -35 24 -35
-9 0 -23 -10 -31 -22 l-15 -21 -36 27 c-52 40 -122 133 -144 191 -34 92 -37
215 -4 143 15 -32 91 -116 117 -129 16 -9 13 -3 -10 22 -71 76 -165 251 -189
351 -16 70 -20 148 -6 148 4 0 25 -27 45 -59 38 -63 155 -221 163 -221 5 0 7
-4 -68 110 -117 177 -159 275 -173 395 -6 50 -6 50 11 25 10 -13 37 -49 60
-80z m311 -432 c24 -66 100 -146 205 -215 56 -37 126 -87 155 -111 l52 -44 0
-73 c0 -41 4 -85 10 -99 5 -14 7 -26 5 -26 -3 0 -38 33 -78 73 -40 39 -101 92
-136 117 -241 171 -281 212 -288 297 -3 36 1 56 16 81 12 17 27 32 34 32 7 0
18 -15 25 -32z m139 -367 c98 -66 201 -140 229 -165 48 -42 51 -48 57 -103 3
-32 9 -67 13 -78 5 -12 -21 4 -67 42 -40 33 -146 109 -234 169 -171 116 -198
140 -216 192 -11 35 0 62 26 62 7 0 93 -54 192 -119z m-207 -168 c13 -36 73
-95 154 -149 31 -20 56 -40 56 -43 -1 -3 -9 -16 -20 -29 l-19 -23 -110 91
c-113 95 -135 125 -147 200 l-7 44 41 -30 c24 -17 46 -42 52 -61z m214 -14
c189 -118 307 -200 301 -209 -14 -22 -23 -106 -13 -123 16 -30 3 -30 -29 0
-99 96 -205 180 -324 259 -103 68 -129 94 -129 131 0 46 52 30 194 -58z m175
-304 l140 -100 0 -53 c1 -29 6 -62 12 -74 24 -44 -5 -26 -118 75 -182 162
-226 215 -201 244 6 8 15 12 19 11 5 -2 71 -48 148 -103z"/>
<path d="M7056 6028 c-36 -92 -97 -192 -177 -288 -163 -194 -169 -201 -169
-180 0 11 -4 20 -10 20 -5 0 -10 -13 -10 -28 0 -36 -27 -126 -52 -176 -27 -52
-97 -126 -188 -198 -41 -33 -96 -80 -122 -104 -26 -24 -49 -44 -53 -44 -13 0
8 66 37 120 17 30 24 49 15 41 -23 -19 -77 -130 -77 -158 0 -57 -42 -121 -114
-174 -21 -16 -35 -29 -31 -29 19 0 96 53 120 82 l27 33 -6 -45 c-8 -61 -76
-196 -122 -243 -61 -63 -30 -53 35 11 34 33 61 67 61 76 0 9 5 16 10 16 29 0
-43 -170 -102 -241 -27 -33 -44 -59 -39 -59 13 0 111 98 111 110 0 6 5 10 10
10 32 0 -11 -144 -64 -213 -16 -20 -24 -37 -18 -37 6 0 19 11 30 25 44 55 37
10 -14 -104 -19 -41 -34 -76 -34 -79 0 -4 17 10 38 30 20 19 85 68 144 107
121 82 238 185 260 231 9 18 47 53 94 86 176 122 213 171 200 262 -6 42 -4 47
35 89 70 76 114 204 90 265 -8 22 -4 38 30 105 53 104 69 191 46 259 -16 49
-15 52 9 129 18 58 24 98 23 149 -1 39 4 92 11 117 8 31 10 55 4 73 -9 26 -11
24 -38 -46z m-10 -229 c-18 -87 -71 -196 -162 -335 -78 -118 -83 -128 -49 -89
38 43 151 206 166 237 29 65 39 -22 14 -127 -25 -106 -112 -271 -184 -349 -27
-29 -30 -36 -13 -27 13 7 48 43 79 81 31 38 59 68 61 66 9 -9 -20 -150 -38
-185 -25 -50 -103 -144 -141 -172 l-30 -21 -15 21 c-8 11 -23 21 -32 21 -12 0
-7 8 16 26 56 44 83 124 56 163 -8 11 -22 21 -30 21 -19 0 -18 4 13 51 56 85
36 208 -37 224 -31 7 -31 7 -24 53 6 44 16 57 143 187 75 77 154 166 176 199
46 68 52 59 31 -45z m-316 -431 c36 -59 22 -131 -40 -201 -17 -20 -75 -67
-128 -104 -135 -93 -222 -164 -269 -217 -46 -52 -57 -57 -42 -19 5 14 9 58 8
97 l-2 70 44 39 c24 22 87 68 140 103 106 70 210 173 230 228 16 45 33 46 59
4z m20 -263 c10 -12 9 -24 -4 -59 -19 -50 -28 -57 -211 -181 -142 -96 -237
-166 -274 -202 -30 -29 -33 -26 -21 18 6 18 10 50 10 71 0 32 7 43 54 84 66
59 395 281 417 283 9 1 22 -6 29 -14z m76 -227 c-11 -69 -32 -100 -113 -168
-42 -36 -91 -77 -109 -93 l-33 -27 -25 25 -25 25 62 42 c87 59 144 114 156
151 6 18 24 41 41 52 16 11 30 23 30 28 0 4 5 7 11 7 8 0 9 -14 5 -42z m-106
-1 c0 -36 -24 -61 -117 -123 -99 -65 -245 -180 -315 -248 -53 -52 -61 -56 -49
-23 9 26 4 83 -11 110 -6 12 -6 22 -1 26 5 3 25 18 44 33 19 14 113 76 209
137 129 81 184 111 208 111 27 0 32 -4 32 -23z m-200 -284 c0 -44 -43 -91
-230 -254 -47 -40 -89 -78 -93 -84 -5 -5 -5 1 -1 15 4 14 9 52 11 85 l5 60
141 102 c78 56 148 102 155 102 6 1 12 -11 12 -26z"/>
<path d="M3304 5970 c-99 -20 -219 -110 -290 -218 -171 -257 -208 -671 -89
-987 103 -276 306 -435 503 -395 234 48 412 314 453 680 48 419 -156 849 -433
915 -69 16 -83 17 -144 5z"/>
<path d="M4492 5965 c-339 -95 -528 -671 -376 -1149 66 -206 171 -346 313
-414 65 -31 83 -36 151 -36 106 0 188 39 280 133 153 156 232 384 233 671 0
287 -81 519 -234 673 -112 112 -244 156 -367 122z"/>
<path d="M2347 4776 c-65 -23 -129 -82 -163 -149 -175 -342 92 -944 469 -1059
210 -63 380 77 411 338 13 111 -29 319 -91 453 -36 77 -123 199 -186 261 -145
142 -313 201 -440 156z"/>
<path d="M5402 4776 c-183 -60 -365 -257 -454 -493 -49 -132 -61 -192 -61
-323 0 -188 64 -314 193 -382 66 -34 172 -32 260 5 295 123 532 565 476 887
-25 139 -82 233 -174 287 -55 32 -171 41 -240 19z"/>
<path d="M3830 3999 c-41 -11 -113 -37 -160 -60 -72 -34 -99 -55 -190 -147
-158 -159 -339 -404 -547 -742 -197 -319 -231 -460 -154 -627 73 -155 216
-226 456 -227 149 -1 193 12 380 105 164 81 241 99 430 99 194 0 290 -22 407
-92 167 -99 331 -133 513 -106 171 26 277 93 337 215 40 83 50 197 23 288 -38
133 -189 387 -440 742 -27 37 -51 70 -54 73 -4 3 -25 30 -48 60 -89 116 -117
148 -197 231 -99 101 -201 159 -336 189 -116 27 -315 26 -420 -1z"/>
</g>
</svg>
